<svg xmlns="http://www.w3.org/2000/svg" viewBox="0 0 768 1376"><defs><linearGradient id="g" x2="0" y2="1"><stop stop-color="#f4fae8"/><stop offset="1" stop-color="#d7e7c3"/></linearGradient></defs><rect width="768" height="1376" fill="url(#g)"/><rect y="820" width="768" height="556" fill="#8c8065"/><rect y="805" width="768" height="30" fill="#faf3dc"/><rect x="88" y="120" width="592" height="360" rx="28" fill="#fffdf1" fill-opacity=".72" stroke="#88a968" stroke-width="8"/><g stroke="#537a45" stroke-width="9" opacity=".8"><path d="M75 110l10 490"/><path d="M110 120l25 480"/><path d="M690 110l-12 490"/><path d="M655 120l-28 480"/></g><g fill="#6f9f5c" opacity=".75"><ellipse cx="65" cy="160" rx="30" ry="12"/><ellipse cx="190" cy="160" rx="30" ry="12"/><ellipse cx="315" cy="160" rx="30" ry="12"/><ellipse cx="440" cy="160" rx="30" ry="12"/><ellipse cx="565" cy="160" rx="30" ry="12"/><ellipse cx="690" cy="160" rx="30" ry="12"/><ellipse cx="65" cy="252" rx="30" ry="12"/><ellipse cx="190" cy="252" rx="30" ry="12"/><ellipse cx="315" cy="252" rx="30" ry="12"/><ellipse cx="440" cy="252" rx="30" ry="12"/><ellipse cx="565" cy="252" rx="30" ry="12"/><ellipse cx="690" cy="252" rx="30" ry="12"/><ellipse cx="65" cy="344" rx="30" ry="12"/><ellipse cx="190" cy="344" rx="30" ry="12"/><ellipse cx="315" cy="344" rx="30" ry="12"/><ellipse cx="440" cy="344" rx="30" ry="12"/><ellipse cx="565" cy="344" rx="30" ry="12"/><ellipse cx="690" cy="344" rx="30" ry="12"/><ellipse cx="65" cy="436" rx="30" ry="12"/><ellipse cx="190" cy="436" rx="30" ry="12"/><ellipse cx="315" cy="436" rx="30" ry="12"/><ellipse cx="440" cy="436" rx="30" ry="12"/><ellipse cx="565" cy="436" rx="30" ry="12"/><ellipse cx="690" cy="436" rx="30" ry="12"/></g><g fill="#66513d"><rect x="110" y="545" width="548" height="28" rx="10"/><rect x="110" y="635" width="548" height="28" rx="10"/></g><g fill="#8aaf6e"><ellipse cx="135" cy="520" rx="18" ry="12"/><ellipse cx="207" cy="520" rx="18" ry="12"/><ellipse cx="279" cy="520" rx="18" ry="12"/><ellipse cx="351" cy="520" rx="18" ry="12"/><ellipse cx="423" cy="520" rx="18" ry="12"/><ellipse cx="495" cy="520" rx="18" ry="12"/><ellipse cx="567" cy="520" rx="18" ry="12"/><ellipse cx="135" cy="610" rx="18" ry="12"/><ellipse cx="207" cy="610" rx="18" ry="12"/><ellipse cx="279" cy="610" rx="18" ry="12"/><ellipse cx="351" cy="610" rx="18" ry="12"/><ellipse cx="423" cy="610" rx="18" ry="12"/><ellipse cx="495" cy="610" rx="18" ry="12"/><ellipse cx="567" cy="610" rx="18" ry="12"/></g><rect x="78" y="720" width="612" height="330" rx="26" fill="#dfbd94" stroke="#66513d" stroke-width="10"/><rect x="105" y="752" width="558" height="60" rx="10" fill="#f6e5c7"/></svg>